#!OML:ASF X:\für Bonn\!DataBase\2005_08_10_Bjorn_Final\c3d\bjorn.ASF
:FULLY-SPECIFIED
:DEGREES
33
root 4.45619 17.8976 6.98578 6.07172 -7.8595 357.451
lowerback -1.76129 1.11818 4.59572
upperback 7.54213 1.12601 0.843858
thorax 9.02563 0.839958 -1.56843
lowerneck -14.3573 0.702712 4.10321
upperneck -5.27958 0.287797 -7.65124
head 0.819294 -0.0815912 -3.21532
rclavicle 6.4605e-015 -1.21259e-014
rhumerus -48.3438 -38.5159 -63.1433
rradius 67.9328
rwrist -30.8981
rhand -12.4185 16.8756
rfingers 7.12502
rthumb 13.6537 -12.6565
lclavicle 6.4605e-015 -1.21259e-014
lhumerus -40.0159 25.1927 65.5134
lradius 70.8969
lwrist 52.25
lhand -35.229 -11.4008
lfingers 7.12502
lthumb -8.36581 18.4135
rfemur -14.3145 10.2571 16.3708
rtibia 49.0498
rfoot -28.7846 19.7376
rtoes -10.5225
lfemur -27.8381 -7.79099 -14.4106
ltibia 58.4643
lfoot -24.5888 0.345452
ltoes -25.2698
34
root 4.47327 18.0555 7.23438 5.80147 -7.95047 357.872
lowerback -2.46809 1.17667 4.26455
upperback 7.38218 1.2044 0.718956
thorax 9.26476 0.861758 -1.49692
lowerneck -14.1718 0.650984 4.09996
upperneck -4.39264 0.273714 -7.49344
head 1.07847 -0.0902461 -3.16665
rclavicle -3.05134e-014 1.35174e-014
rhumerus -48.7624 -37.9073 -62.2182
rradius 71.7743
rwrist -30.8483
rhand -12.1627 16.7671
rfingers 7.12502
rthumb 13.9002 -12.7484
lclavicle -3.05134e-014 1.35174e-014
lhumerus -40.22 24.1571 64.8277
lradius 74.1351
lwrist 51.0113
lhand -35.0335 -11.2422
lfingers 7.12502
lthumb -8.17714 18.5796
rfemur -12.4199 10.0425 15.7937
rtibia 47.1581
rfoot -27.0089 19.9935
rtoes -13.4464
lfemur -25.7085 -7.9371 -15.1935
ltibia 56.4369
lfoot -23.6166 -0.171364
ltoes -24.5143
35
root 4.49065 18.2271 7.47923 5.57331 -8.09699 358.322
lowerback -3.24485 1.24261 3.9047
upperback 7.18855 1.29955 0.577409
thorax 9.50941 0.889448 -1.42308
lowerneck -13.9935 0.590057 3.95806
upperneck -3.25004 0.276235 -7.12195
head 1.42137 -0.0856877 -3.02107
rclavicle 2.78299e-015 1.78906e-014
rhumerus -49.1705 -37.2409 -61.3079
rradius 75.5477
rwrist -30.8417
rhand -12.4101 16.9862
rfingers 7.12502
rthumb 13.6618 -12.5455
lclavicle 2.78299e-015 1.78906e-014
lhumerus -40.4657 22.9699 64.161
lradius 77.2399
lwrist 49.7129
lhand -34.5304 -10.0664
lfingers 7.12502
lthumb -7.69152 19.7738
rfemur -10.6246 9.89933 15.131
rtibia 45.1492
rfoot -24.2106 20.6477
rtoes -14.4663
lfemur -23.5671 -7.91235 -15.9633
ltibia 54.1838
lfoot -22.313 -0.543425
ltoes -25.2162
36
root 4.50863 18.4245 7.72251 5.3869 -8.27805 358.514
lowerback -4.00979 1.32493 3.82581
upperback 6.96009 1.39446 0.497363
thorax 9.71771 0.933392 -1.44008
lowerneck -13.8773 0.527018 3.63912
upperneck -1.8025 0.303455 -6.50804
head 1.8753 -0.0631891 -2.7648
rclavicle 1.90833e-014 -1.78906e-015
rhumerus -49.5166 -36.5839 -60.4235
rradius 79.2657
rwrist -30.4486
rhand -13.0984 16.9061
rfingers 7.12502
rthumb 12.9984 -12.669
lclavicle 1.90833e-014 -1.78906e-015
lhumerus -40.6121 21.8406 63.5219
lradius 80.174
lwrist 48.1514
lhand -34.0554 -9.84849
lfingers 7.12502
lthumb -7.23305 20.0079
rfemur -8.90557 9.67264 14.7704
rtibia 43.0249
rfoot -20.7305 21.017
rtoes -15.944
lfemur -21.3923 -7.69967 -16.3943
ltibia 51.7413
lfoot -20.7433 -1.24671
ltoes -25.8159
37
root 4.5264 18.6415 7.96442 5.2242 -8.49162 358.568
lowerback -4.77859 1.41645 3.85689
upperback 6.70799 1.4892 0.461623
thorax 9.90557 0.982459 -1.47016
lowerneck -13.7705 0.488255 3.30087
upperneck -0.11064 0.360433 -5.83265
head 2.41856 -0.0233258 -2.48955
rclavicle -8.15017e-015 1.43125e-014
rhumerus -49.7612 -35.8922 -59.6201
rradius 82.9089
rwrist -29.949
rhand -13.803 16.6919
rfingers 7.12502
rthumb 12.3191 -12.9252
lclavicle -8.15017e-015 1.43125e-014
lhumerus -40.7485 20.6742 62.9044
lradius 83.0193
lwrist 46.5756
lhand -33.3979 -9.41333
lfingers 7.12502
lthumb -6.59832 20.4639
rfemur -7.29923 9.33637 14.5629
rtibia 40.8541
rfoot -16.4706 21.1394
rtoes -17.2868
lfemur -19.2211 -7.26602 -16.6163
ltibia 49.1664
lfoot -18.6334 -2.20074
ltoes -26.596
38
root 4.54464 18.8759 8.20711 5.0291 -8.7048 358.579
lowerback -5.5019 1.49284 3.9197
upperback 6.41421 1.55987 0.461084
thorax 10.0189 1.01883 -1.48423
lowerneck -13.4963 0.448314 2.90655
upperneck 1.77041 0.41829 -5.16358
head 3.00299 0.020282 -2.20886
rclavicle 3.57812e-015 -3.57812e-015
rhumerus -49.8608 -35.234 -58.7596
rradius 86.541
rwrist -28.6684
rhand -14.5711 16.3584
rfingers 7.12502
rthumb 11.5784 -13.3018
lclavicle 3.57812e-015 -3.57812e-015
lhumerus -40.8538 19.6178 62.331
lradius 85.6978
lwrist 44.8017
lhand -32.7808 -9.61611
lfingers 7.12502
lthumb -6.00254 20.2789
rfemur -5.76498 8.93016 14.3927
rtibia 38.7409
rfoot -11.3333 21.0962
rtoes -16.8954
lfemur -17.0554 -6.69276 -16.738
ltibia 46.5665
lfoot -15.8159 -3.3672
ltoes -27.7241
39
root 4.56208 19.1222 8.45128 4.89795 -8.96342 358.56
lowerback -6.29303 1.59566 4.0358
upperback 6.04039 1.65893 0.450025
thorax 10.0881 1.0713 -1.5338
lowerneck -12.7014 0.381311 2.66653
upperneck 3.39698 0.408731 -4.67914
head 3.40788 0.0337167 -2.015
rclavicle 2.60905e-014 1.0138e-014
rhumerus -49.9028 -34.5531 -57.8261
rradius 90.0271
rwrist -27.3573
rhand -14.6876 15.9133
rfingers 7.12502
rthumb 11.4661 -13.7532
lclavicle 2.60905e-014 1.0138e-014
lhumerus -40.9141 18.6765 61.7526
lradius 88.3685
lwrist 42.8633
lhand -32.5033 -9.85378
lfingers 7.12502
lthumb -5.73469 20.0486
rfemur -4.48773 8.53232 14.234
rtibia 36.8194
rfoot -5.57343 20.4744
rtoes -16.0268
lfemur -15.0492 -5.9523 -16.7756
ltibia 44.0016
lfoot -12.5791 -4.67536
ltoes -28.6746
40
root 4.57906 19.3794 8.69413 4.916 -9.22266 358.535
lowerback -7.12856 1.68784 4.11396
upperback 5.50564 1.74475 0.47502
thorax 10.0013 1.10827 -1.5264
lowerneck -11.3487 0.302655 2.67022
upperneck 4.67282 0.362724 -4.60365
head 3.58872 0.0230267 -1.99723
rclavicle -2.32081e-014 6.36111e-015
rhumerus -49.964 -33.7713 -56.7541
rradius 93.3087
rwrist -26.0326
rhand -14.4054 15.2061
rfingers 7.12502
rthumb 11.7382 -14.445
lclavicle -2.32081e-014 6.36111e-015
lhumerus -41.0787 17.8887 61.1278
lradius 91.0986
lwrist 40.9064
lhand -32.6569 -9.68223
lfingers 7.12502
lthumb -5.88293 20.2161
rfemur -3.62344 8.0634 14.0483
rtibia 35.2017
rfoot 0.387972 19.0964
rtoes -15.8566
lfemur -13.4172 -5.21044 -16.7287
ltibia 41.5631
lfoot -8.81623 -6.08369
ltoes -28.5574
41
root 4.59569 19.6606 8.94184 5.04237 -9.4716 358.533
lowerback -8.02484 1.78203 4.18919
upperback 4.89648 1.83305 0.47517
thorax 9.86914 1.14507 -1.54223
lowerneck -9.65144 0.219324 2.69869
upperneck 5.65315 0.301892 -4.53025
head 3.59629 0.010488 -1.97765
rclavicle -1.2921e-014 -8.94531e-015
rhumerus -49.911 -33.0155 -55.7736
rradius 96.2787
rwrist -24.9251
rhand -13.9415 14.1373
rfingers 7.12502
rthumb 12.1855 -15.4878
lclavicle -1.2921e-014 -8.94531e-015
lhumerus -41.1769 17.1209 60.5638
lradius 93.6202
lwrist 38.5143
lhand -33.1616 -9.33625
lfingers 7.12502
lthumb -6.37025 20.548
rfemur -3.11157 7.61642 13.8556
rtibia 33.923
rfoot 5.87343 17.1235
rtoes -16.5026
lfemur -12.1209 -4.46522 -16.6596
ltibia 39.2553
lfoot -4.44747 -7.38756
ltoes -28.2017
42
root 4.61062 19.9482 9.18801 5.21838 -9.72453 358.523
lowerback -8.95801 1.86131 4.22703
upperback 4.30876 1.89968 0.499456
thorax 9.7783 1.16828 -1.51231
lowerneck -7.95763 0.148012 2.57232
upperneck 6.57036 0.258107 -4.28333
head 3.57912 0.00970096 -1.86906
rclavicle 2.78299e-014 2.06736e-014
rhumerus -49.5308 -32.2824 -54.9837
rradius 98.6656
rwrist -23.9337
rhand -13.3827 13.6052
rfingers 7.12502
rthumb 12.7243 -15.9871
lclavicle 2.78299e-014 2.06736e-014
lhumerus -41.0983 16.5656 60.1596
lradius 95.8214
lwrist 36.4572
lhand -33.428 -9.89104
lfingers 7.12502
lthumb -6.62738 19.9853
rfemur -2.88989 7.13667 13.6906
rtibia 33.0043
rfoot 10.8936 15.014
rtoes -16.2586
lfemur -11.0689 -3.8547 -16.5715
ltibia 37.1576
lfoot 0.284301 -8.28801
ltoes -27.9696
43
root 4.62359 20.2328 9.43066 5.4095 -9.93335 358.521
lowerback -9.86846 1.93871 4.25317
upperback 3.77082 1.96703 0.490503
thorax 9.72864 1.19336 -1.50977
lowerneck -6.41753 0.0990344 2.56964
upperneck 7.42264 0.221144 -4.03112
head 3.57106 0.0133809 -1.78234
rclavicle 1.75427e-014 1.80894e-014
rhumerus -49.105 -31.6215 -54.3283
rradius 100.803
rwrist -23.3125
rhand -12.8812 13.8842
rfingers 7.12502
rthumb 13.2077 -15.6774
lclavicle 1.75427e-014 1.80894e-014
lhumerus -40.8493 15.977 59.7698
lradius 97.8166
lwrist 35.022
lhand -33.5058 -11.0349
lfingers 7.12502
lthumb -6.70246 18.839
rfemur -2.88454 6.67255 13.5824
rtibia 32.3978
rfoot 15.2259 12.9241
rtoes -14.8423
lfemur -10.2028 -3.52051 -16.4986
ltibia 35.2577
lfoot 5.30982 -8.60479
ltoes -27.2617
44
root 4.63554 20.5143 9.67053 5.61352 -10.117 358.552
lowerback -10.8074 1.98532 4.19241
upperback 3.38545 1.99726 0.505236
thorax 9.85537 1.19863 -1.43485
lowerneck -5.37494 0.0721092 2.50947
upperneck 8.33083 0.210673 -3.79252
head 3.6815 0.0225056 -1.69444
rclavicle -1.13804e-014 -1.78906e-015
rhumerus -48.3411 -31.109 -53.8874
rradius 102.826
rwrist -22.7313
rhand -12.5495 14.2148
rfingers 7.12502
rthumb 13.5274 -15.3258
lclavicle -1.13804e-014 -1.78906e-015
lhumerus -40.1921 15.599 59.6003
lradius 99.5668
lwrist 33.8783
lhand -33.479 -12.0365
lfingers 7.12502
lthumb -6.67665 17.8382
rfemur -3.09889 6.18891 13.4918
rtibia 32.1182
rfoot 18.8663 10.7877
rtoes -11.9662
lfemur -9.55171 -3.35762 -16.4698
ltibia 33.6306
lfoot 10.2458 -8.46087
ltoes -26.3243
45
root 4.64718 20.7942 9.90682 5.77119 -10.2908 358.555
lowerback -11.6544 2.02054 4.16905
upperback 3.15773 2.00842 0.51457
thorax 10.1014 1.201 -1.38911
lowerneck -4.78723 0.0701429 2.55163
upperneck 9.23875 0.223341 -3.65727
head 3.88535 0.0382235 -1.66306
rclavicle -2.04251e-014 -4.63168e-014
rhumerus -47.2452 -30.7538 -53.7731
rradius 104.726
rwrist -22.2931
rhand -12.3322 14.5933
rfingers 7.12502
rthumb 13.7368 -14.9333
lclavicle -2.04251e-014 -4.63168e-014
lhumerus -39.1191 15.2913 59.6604
lradius 100.88
lwrist 32.6967
lhand -33.5792 -13.2543
lfingers 7.12502
lthumb -6.77332 16.6174
rfemur -3.45057 5.64016 13.4849
rtibia 32.174
rfoot 21.7527 8.97403
rtoes -9.73896
lfemur -9.01086 -3.21204 -16.4249
ltibia 32.2918
lfoot 14.7556 -8.03497
ltoes -25.7918
